<?xml version="1.0" encoding="UTF-8"?>
<svg xmlns="http://www.w3.org/2000/svg" xmlns:xlink="http://www.w3.org/1999/xlink" width="56px" height="28px" viewBox="0 0 56 28" version="1.1">
<g id="surface1">
<path style=" stroke:none;fill-rule:nonzero;fill:rgb(0%,0%,0%);fill-opacity:1;" d="M 8.230469 21.136719 L 7.613281 19.113281 L 4.515625 19.113281 L 3.902344 21.136719 L 1.960938 21.136719 L 4.957031 12.605469 L 7.160156 12.605469 L 10.171875 21.136719 Z M 7.183594 17.601562 C 6.613281 15.769531 6.292969 14.734375 6.222656 14.492188 C 6.148438 14.253906 6.097656 14.0625 6.066406 13.925781 C 5.941406 14.421875 5.574219 15.644531 4.96875 17.601562 Z M 15.542969 14.515625 C 15.785156 14.515625 15.984375 14.535156 16.140625 14.570312 L 16.007812 16.230469 C 15.867188 16.191406 15.691406 16.171875 15.484375 16.171875 C 14.921875 16.171875 14.480469 16.320312 14.164062 16.609375 C 13.847656 16.898438 13.691406 17.304688 13.691406 17.828125 L 13.691406 21.136719 L 11.917969 21.136719 L 11.917969 14.640625 L 13.261719 14.640625 L 13.523438 15.730469 L 13.609375 15.730469 C 13.808594 15.367188 14.082031 15.074219 14.425781 14.851562 C 14.769531 14.628906 15.140625 14.515625 15.542969 14.515625 Z M 20.875 19.839844 C 21.1875 19.839844 21.558594 19.773438 21.992188 19.636719 L 21.992188 20.957031 C 21.550781 21.152344 21.007812 21.25 20.363281 21.25 C 19.65625 21.25 19.140625 21.074219 18.816406 20.714844 C 18.492188 20.355469 18.332031 19.816406 18.332031 19.101562 L 18.332031 15.96875 L 17.484375 15.96875 L 17.484375 15.21875 L 18.460938 14.628906 L 18.96875 13.257812 L 20.105469 13.257812 L 20.105469 14.640625 L 21.921875 14.640625 L 21.921875 15.96875 L 20.105469 15.96875 L 20.105469 19.101562 C 20.105469 19.351562 20.175781 19.539062 20.316406 19.660156 C 20.457031 19.78125 20.644531 19.839844 20.875 19.839844 Z M 24.046875 12.960938 C 24.046875 12.382812 24.371094 12.09375 25.011719 12.09375 C 25.65625 12.09375 25.976562 12.382812 25.976562 12.960938 C 25.976562 13.234375 25.894531 13.449219 25.734375 13.601562 C 25.574219 13.753906 25.332031 13.832031 25.011719 13.832031 C 24.371094 13.832031 24.046875 13.539062 24.046875 12.960938 Z M 25.894531 21.136719 L 24.125 21.136719 L 24.125 14.640625 L 25.894531 14.640625 Z M 32.164062 15.96875 L 30.628906 15.96875 L 30.628906 21.136719 L 28.859375 21.136719 L 28.859375 15.96875 L 27.882812 15.96875 L 27.882812 15.117188 L 28.859375 14.640625 L 28.859375 14.164062 C 28.859375 13.421875 29.039062 12.882812 29.402344 12.542969 C 29.769531 12.199219 30.351562 12.03125 31.152344 12.03125 C 31.765625 12.03125 32.308594 12.121094 32.785156 12.304688 L 32.332031 13.605469 C 31.976562 13.492188 31.648438 13.4375 31.34375 13.4375 C 31.09375 13.4375 30.910156 13.511719 30.796875 13.660156 C 30.6875 13.808594 30.628906 14 30.628906 14.234375 L 30.628906 14.640625 L 32.164062 14.640625 Z M 33.070312 14.640625 L 35.007812 14.640625 L 36.234375 18.292969 C 36.339844 18.613281 36.410156 18.988281 36.449219 19.421875 L 36.484375 19.421875 C 36.527344 19.023438 36.609375 18.648438 36.734375 18.292969 L 37.9375 14.640625 L 39.839844 14.640625 L 37.089844 21.964844 C 36.839844 22.644531 36.480469 23.152344 36.011719 23.488281 C 35.546875 23.824219 35 23.996094 34.375 23.996094 C 34.070312 23.996094 33.769531 23.960938 33.476562 23.894531 L 33.476562 22.488281 C 33.6875 22.539062 33.921875 22.566406 34.171875 22.566406 C 34.488281 22.566406 34.761719 22.46875 34.996094 22.277344 C 35.230469 22.085938 35.414062 21.796875 35.542969 21.410156 L 35.648438 21.089844 Z M 46.925781 21.136719 L 46.308594 19.113281 L 43.210938 19.113281 L 42.597656 21.136719 L 40.65625 21.136719 L 43.652344 12.605469 L 45.855469 12.605469 L 48.867188 21.136719 Z M 45.878906 17.601562 C 45.308594 15.769531 44.988281 14.734375 44.917969 14.492188 C 44.847656 14.253906 44.796875 14.0625 44.765625 13.925781 C 44.636719 14.421875 44.269531 15.644531 43.664062 17.601562 Z M 50.753906 21.136719 L 50.753906 12.640625 L 52.554688 12.640625 L 52.554688 21.136719 Z M 50.753906 21.136719 "/>
</g>
</svg>
